<svg width="512" height="512" viewBox="0 0 512 512" fill="none" xmlns="http://www.w3.org/2000/svg">
  <rect width="512" height="512" rx="112" fill="#12151C"/>
  <rect x="76" y="76" width="360" height="360" rx="86" stroke="#2A3245" stroke-width="12"/>

  <!-- classic taegeuk-inspired symbol -->
  <g transform="translate(256 256)">
    <circle cx="0" cy="0" r="128" fill="#FFFFFF"/>
    <path d="M0 -128C70.692 -128 128 -70.692 128 0C128 70.692 70.692 128 0 128C-70.692 128 -128 70.692 -128 0C-128 -70.692 -70.692 -128 0 -128Z" fill="#CD2E3A"/>
    <path d="M0 -128C-70.692 -128 -128 -70.692 -128 0C-128 70.692 -70.692 128 0 128C70.692 128 128 70.692 128 0C128 -70.692 70.692 -128 0 -128Z" fill="#0047A0"/>
    <circle cx="0" cy="-64" r="64" fill="#0047A0"/>
    <circle cx="0" cy="64" r="64" fill="#CD2E3A"/>
  </g>
</svg>
